<svg 
 xmlns="http://www.w3.org/2000/svg"
 xmlns:xlink="http://www.w3.org/1999/xlink"
 width="14px" height="26px">
<path fill-rule="evenodd"  fill="rgb(255, 255, 255)"
 d="M9.202,26.000 C7.184,26.000 5.167,26.000 3.149,26.000 C3.095,25.856 2.993,25.712 2.992,25.569 C2.985,21.485 2.987,17.402 2.988,13.319 C2.988,13.219 2.988,13.119 2.988,12.992 C1.969,12.992 0.984,12.992 -0.000,12.992 C-0.000,11.523 -0.000,10.083 -0.000,8.617 C0.101,8.617 0.190,8.617 0.279,8.617 C1.060,8.618 1.842,8.618 2.623,8.619 C2.975,8.619 2.991,8.604 2.991,8.267 C2.992,7.115 2.975,5.963 2.997,4.811 C3.033,2.970 3.832,1.549 5.618,0.702 C6.433,0.315 7.303,0.085 8.208,0.063 C10.034,0.017 11.860,0.023 13.686,-0.000 C13.936,-0.003 13.965,0.116 13.964,0.306 C13.958,1.638 13.959,2.971 13.956,4.303 C13.956,4.377 13.943,4.452 13.934,4.545 C13.826,4.545 13.737,4.545 13.647,4.545 C12.657,4.545 11.666,4.549 10.676,4.544 C9.896,4.540 9.194,5.087 9.225,5.895 C9.255,6.659 9.225,7.425 9.221,8.190 C9.219,8.588 9.246,8.613 9.665,8.613 C11.110,8.614 12.555,8.616 14.000,8.617 C14.000,8.652 14.000,8.686 14.000,8.720 C13.984,8.769 13.960,8.817 13.953,8.867 C13.786,10.154 13.614,11.441 13.461,12.729 C13.435,12.942 13.359,12.996 13.143,12.994 C11.944,12.985 10.744,12.990 9.545,12.991 C9.440,12.991 9.336,13.000 9.213,13.005 C9.213,13.145 9.213,13.255 9.213,13.365 C9.213,17.448 9.213,21.531 9.213,25.614 C9.213,25.743 9.205,25.871 9.202,26.000 Z"/>
</svg>