<svg 
 xmlns="http://www.w3.org/2000/svg"
 xmlns:xlink="http://www.w3.org/1999/xlink"
 width="104px" height="13px">
<path fill-rule="evenodd"  fill="rgb(255, 255, 255)"
 d="M100.342,1.965 L100.342,12.829 L98.311,12.829 L98.311,1.965 L94.657,1.965 L94.657,0.193 L103.995,0.193 L103.995,1.965 L100.342,1.965 ZM86.986,4.878 C87.298,5.085 87.859,5.359 88.669,5.699 C89.581,6.085 90.249,6.445 90.674,6.779 C91.099,7.113 91.410,7.491 91.609,7.911 C91.807,8.332 91.906,8.827 91.906,9.398 C91.906,10.521 91.506,11.402 90.708,12.042 C89.909,12.682 88.807,13.002 87.402,13.002 C85.998,13.002 84.848,12.780 83.953,12.336 L83.953,10.383 C84.519,10.654 85.122,10.867 85.759,11.023 C86.396,11.178 86.989,11.255 87.538,11.255 C88.343,11.255 88.936,11.100 89.319,10.789 C89.701,10.478 89.892,10.060 89.892,9.536 C89.892,9.063 89.717,8.663 89.365,8.334 C89.014,8.006 88.289,7.618 87.190,7.168 C86.057,6.701 85.259,6.168 84.794,5.569 C84.330,4.970 84.098,4.250 84.098,3.409 C84.098,2.354 84.466,1.524 85.202,0.920 C85.938,0.315 86.927,0.012 88.167,0.012 C89.357,0.012 90.541,0.277 91.719,0.807 L91.073,2.492 C89.968,2.020 88.983,1.784 88.117,1.784 C87.459,1.784 86.961,1.929 86.621,2.220 C86.281,2.511 86.111,2.896 86.111,3.374 C86.111,3.703 86.179,3.983 86.315,4.217 C86.451,4.450 86.675,4.671 86.986,4.878 ZM74.524,13.002 C72.648,13.002 71.208,12.435 70.203,11.303 C69.198,10.171 68.695,8.562 68.695,6.477 C68.695,4.391 69.200,2.789 70.212,1.671 C71.223,0.553 72.666,-0.005 74.540,-0.005 C76.387,-0.005 77.815,0.562 78.823,1.697 C79.831,2.833 80.335,4.431 80.335,6.494 C80.335,8.551 79.830,10.149 78.818,11.290 C77.808,12.431 76.376,13.002 74.524,13.002 ZM77.264,2.968 C76.655,2.167 75.747,1.767 74.540,1.767 C73.322,1.767 72.403,2.167 71.784,2.968 C71.163,3.769 70.853,4.944 70.853,6.494 C70.853,8.049 71.162,9.229 71.779,10.033 C72.397,10.837 73.312,11.238 74.524,11.238 C75.730,11.238 76.641,10.841 77.255,10.046 C77.870,9.251 78.177,8.067 78.177,6.494 C78.177,4.944 77.873,3.769 77.264,2.968 ZM60.183,8.102 L58.892,8.102 L58.892,12.829 L56.861,12.829 L56.861,0.193 L60.438,0.193 C61.990,0.193 63.153,0.516 63.926,1.161 C64.699,1.807 65.086,2.758 65.086,4.014 C65.086,5.333 64.661,6.344 63.811,7.047 C62.961,7.750 61.752,8.102 60.183,8.102 ZM62.341,2.458 C61.905,2.101 61.225,1.922 60.302,1.922 L58.892,1.922 L58.892,6.364 L59.970,6.364 C61.012,6.364 61.777,6.180 62.265,5.811 C62.752,5.443 62.996,4.866 62.996,4.082 C62.996,3.357 62.777,2.815 62.341,2.458 ZM50.082,9.320 L45.333,9.320 L44.117,12.829 L41.976,12.829 L46.624,0.142 L48.833,0.142 L53.481,12.829 L51.323,12.829 L50.082,9.320 ZM48.383,4.100 C48.298,3.869 48.181,3.507 48.031,3.011 C47.880,2.515 47.777,2.153 47.720,1.922 C47.567,2.630 47.343,3.406 47.049,4.247 L45.927,7.539 L49.547,7.539 L48.383,4.100 ZM34.510,13.002 C32.629,13.002 31.179,12.435 30.159,11.303 C29.140,10.171 28.630,8.574 28.630,6.511 C28.630,4.477 29.205,2.886 30.354,1.736 C31.505,0.587 33.088,0.012 35.104,0.012 C36.401,0.012 37.631,0.266 38.792,0.773 L38.079,2.492 C37.070,2.020 36.061,1.784 35.053,1.784 C33.728,1.784 32.680,2.207 31.910,3.055 C31.140,3.901 30.754,5.059 30.754,6.528 C30.754,8.072 31.101,9.247 31.795,10.050 C32.489,10.854 33.487,11.255 34.790,11.255 C35.447,11.255 36.150,11.172 36.897,11.005 L36.897,7.747 L34.323,7.747 L34.323,5.976 L38.894,5.976 L38.894,12.319 C38.146,12.567 37.428,12.742 36.740,12.846 C36.052,12.950 35.308,13.002 34.510,13.002 ZM17.790,0.193 L24.817,0.193 L24.817,1.939 L19.821,1.939 L19.821,5.379 L24.502,5.379 L24.502,7.108 L19.821,7.108 L19.821,11.074 L24.817,11.074 L24.817,12.829 L17.790,12.829 L17.790,0.193 ZM10.824,6.580 C10.824,5.952 10.840,5.134 10.871,4.126 C10.902,3.118 10.930,2.507 10.952,2.293 L10.884,2.293 L7.154,12.829 L5.361,12.829 L1.759,2.276 L1.691,2.276 C1.787,3.844 1.835,5.313 1.835,6.684 L1.835,12.829 L-0.008,12.829 L-0.008,0.193 L2.855,0.193 L6.304,10.245 L6.355,10.245 L9.907,0.193 L12.779,0.193 L12.779,12.829 L10.824,12.829 L10.824,6.580 Z"/>
</svg>