<svg 
 xmlns="http://www.w3.org/2000/svg"
 xmlns:xlink="http://www.w3.org/1999/xlink"
 width="101px" height="12px">
<path fill-rule="evenodd"  opacity="0.502" fill="rgb(255, 255, 255)"
 d="M97.449,1.819 L97.449,11.847 L95.477,11.847 L95.477,1.819 L91.929,1.819 L91.929,0.183 L100.997,0.183 L100.997,1.819 L97.449,1.819 ZM84.479,4.507 C84.782,4.699 85.326,4.951 86.113,5.265 C86.999,5.621 87.647,5.954 88.060,6.262 C88.473,6.571 88.775,6.919 88.968,7.307 C89.160,7.696 89.257,8.153 89.257,8.680 C89.257,9.716 88.869,10.530 88.093,11.121 C87.317,11.711 86.247,12.006 84.883,12.006 C83.519,12.006 82.402,11.801 81.533,11.392 L81.533,9.589 C82.083,9.839 82.668,10.036 83.287,10.180 C83.905,10.323 84.481,10.394 85.015,10.394 C85.796,10.394 86.373,10.251 86.744,9.964 C87.115,9.677 87.301,9.291 87.301,8.807 C87.301,8.371 87.131,8.002 86.789,7.698 C86.448,7.395 85.744,7.036 84.677,6.621 C83.577,6.191 82.801,5.699 82.350,5.146 C81.899,4.593 81.673,3.928 81.673,3.151 C81.673,2.178 82.031,1.412 82.746,0.854 C83.461,0.295 84.421,0.016 85.626,0.016 C86.781,0.016 87.931,0.261 89.075,0.750 L88.448,2.305 C87.375,1.869 86.418,1.651 85.576,1.651 C84.938,1.651 84.454,1.786 84.124,2.054 C83.794,2.323 83.629,2.678 83.629,3.119 C83.629,3.423 83.695,3.681 83.827,3.897 C83.959,4.113 84.176,4.316 84.479,4.507 ZM72.376,12.006 C70.554,12.006 69.156,11.483 68.179,10.438 C67.203,9.393 66.715,7.909 66.715,5.983 C66.715,4.058 67.206,2.579 68.188,1.547 C69.170,0.516 70.571,-0.000 72.392,-0.000 C74.185,-0.000 75.572,0.524 76.551,1.571 C77.530,2.619 78.019,4.095 78.019,5.999 C78.019,7.898 77.529,9.373 76.546,10.426 C75.565,11.480 74.174,12.006 72.376,12.006 ZM75.037,2.745 C74.445,2.005 73.564,1.635 72.392,1.635 C71.209,1.635 70.317,2.005 69.715,2.745 C69.112,3.484 68.811,4.569 68.811,5.999 C68.811,7.435 69.111,8.524 69.710,9.266 C70.310,10.008 71.199,10.379 72.376,10.379 C73.548,10.379 74.432,10.012 75.028,9.278 C75.625,8.544 75.924,7.451 75.924,5.999 C75.924,4.569 75.628,3.484 75.037,2.745 ZM58.449,7.483 L57.194,7.483 L57.194,11.847 L55.222,11.847 L55.222,0.183 L58.696,0.183 C60.203,0.183 61.333,0.481 62.083,1.077 C62.834,1.673 63.210,2.550 63.210,3.710 C63.210,4.928 62.797,5.861 61.972,6.510 C61.147,7.158 59.972,7.483 58.449,7.483 ZM60.544,2.274 C60.121,1.944 59.461,1.779 58.564,1.779 L57.194,1.779 L57.194,5.880 L58.242,5.880 C59.254,5.880 59.997,5.709 60.470,5.369 C60.943,5.029 61.180,4.496 61.180,3.773 C61.180,3.103 60.968,2.603 60.544,2.274 ZM48.639,8.608 L44.027,8.608 L42.846,11.847 L40.767,11.847 L45.281,0.136 L47.426,0.136 L51.940,11.847 L49.844,11.847 L48.639,8.608 ZM46.989,3.790 C46.906,3.577 46.792,3.242 46.647,2.784 C46.501,2.327 46.400,1.992 46.345,1.779 C46.197,2.433 45.979,3.149 45.693,3.925 L44.604,6.964 L48.120,6.964 L46.989,3.790 ZM33.516,12.006 C31.689,12.006 30.281,11.483 29.291,10.438 C28.301,9.393 27.806,7.919 27.806,6.015 C27.806,4.138 28.364,2.669 29.481,1.607 C30.598,0.546 32.135,0.016 34.093,0.016 C35.353,0.016 36.547,0.250 37.675,0.718 L36.982,2.305 C36.002,1.869 35.023,1.651 34.044,1.651 C32.757,1.651 31.739,2.042 30.991,2.824 C30.243,3.606 29.869,4.675 29.869,6.031 C29.869,7.456 30.205,8.540 30.879,9.282 C31.553,10.024 32.523,10.394 33.788,10.394 C34.426,10.394 35.109,10.318 35.835,10.163 L35.835,7.156 L33.334,7.156 L33.334,5.521 L37.773,5.521 L37.773,11.376 C37.047,11.605 36.350,11.767 35.682,11.862 C35.014,11.958 34.292,12.006 33.516,12.006 ZM17.279,0.183 L24.103,0.183 L24.103,1.795 L19.251,1.795 L19.251,4.970 L23.797,4.970 L23.797,6.566 L19.251,6.566 L19.251,10.227 L24.103,10.227 L24.103,11.847 L17.279,11.847 L17.279,0.183 ZM10.514,6.079 C10.514,5.499 10.529,4.744 10.559,3.813 C10.589,2.883 10.616,2.319 10.638,2.122 L10.572,2.122 L6.950,11.847 L5.208,11.847 L1.709,2.106 L1.644,2.106 C1.737,3.553 1.784,4.909 1.784,6.175 L1.784,11.847 L-0.006,11.847 L-0.006,0.183 L2.774,0.183 L6.124,9.461 L6.173,9.461 L9.623,0.183 L12.412,0.183 L12.412,11.847 L10.514,11.847 L10.514,6.079 Z"/>
</svg>