<svg 
 xmlns="http://www.w3.org/2000/svg"
 xmlns:xlink="http://www.w3.org/1999/xlink"
 width="15px" height="26px">
<path fill-rule="evenodd"  opacity="0.502" fill="rgb(255, 255, 255)"
 d="M14.250,16.990 C13.079,17.829 11.780,18.385 10.387,18.727 C10.268,18.757 10.149,18.790 9.924,18.934 C10.044,19.002 10.185,19.048 10.280,19.142 C11.474,20.322 12.664,21.507 13.849,22.695 C14.646,23.495 14.791,24.523 14.127,25.266 C13.833,25.594 13.359,25.760 12.967,26.000 C12.818,26.000 12.670,26.000 12.521,26.000 C11.878,25.857 11.421,25.435 10.971,24.984 C9.926,23.940 8.866,22.912 7.811,21.878 C7.719,21.788 7.620,21.703 7.514,21.606 C6.456,22.737 5.421,23.824 4.411,24.935 C3.971,25.418 3.525,25.864 2.859,26.000 C2.736,26.000 2.612,26.000 2.488,26.000 C2.360,25.960 2.230,25.924 2.103,25.881 C0.866,25.465 0.429,23.957 1.297,22.969 C2.118,22.036 2.996,21.153 3.850,20.249 C4.275,19.798 4.702,19.348 5.137,18.888 C4.423,18.657 3.719,18.487 3.064,18.201 C2.298,17.867 1.548,17.476 0.842,17.028 C-0.063,16.453 -0.254,15.294 0.344,14.441 C0.908,13.635 2.022,13.481 2.890,14.027 C5.784,15.846 8.744,15.886 11.743,14.292 C11.917,14.199 12.068,14.064 12.236,13.960 C13.067,13.446 14.174,13.688 14.697,14.493 C15.232,15.319 15.045,16.419 14.250,16.990 ZM8.685,13.394 C5.185,14.000 1.734,11.571 1.074,8.038 C0.365,4.239 2.825,0.721 6.631,0.093 C6.835,0.060 7.040,0.031 7.244,0.000 C7.492,0.000 7.740,0.000 7.988,0.000 C8.372,0.072 8.761,0.127 9.141,0.218 C11.932,0.886 13.935,3.177 14.238,6.037 C14.613,9.588 12.200,12.786 8.685,13.394 ZM7.603,3.956 C6.064,3.962 4.847,5.191 4.844,6.742 C4.841,8.311 6.066,9.543 7.625,9.540 C9.162,9.537 10.383,8.306 10.385,6.757 C10.388,5.188 9.157,3.950 7.603,3.956 Z"/>
</svg>