<svg 
 xmlns="http://www.w3.org/2000/svg"
 xmlns:xlink="http://www.w3.org/1999/xlink"
 width="26px" height="21px">
<path fill-rule="evenodd"  opacity="0.502" fill="rgb(255, 255, 255)"
 d="M17.554,-0.001 C17.844,-0.001 18.133,-0.001 18.422,-0.001 C18.663,0.043 18.906,0.078 19.145,0.132 C20.147,0.355 21.015,0.822 21.753,1.533 C21.819,1.597 21.952,1.660 22.030,1.638 C22.665,1.457 23.303,1.279 23.922,1.054 C24.378,0.888 24.806,0.650 25.281,0.429 C24.869,1.646 24.111,2.558 23.081,3.271 C24.087,3.179 25.031,2.895 26.000,2.497 C25.933,2.599 25.903,2.648 25.869,2.695 C25.244,3.576 24.508,4.354 23.633,4.993 C23.407,5.157 23.354,5.333 23.347,5.600 C23.325,6.406 23.313,7.219 23.195,8.014 C22.792,10.747 21.734,13.219 20.006,15.391 C17.522,18.511 14.275,20.324 10.296,20.851 C9.860,20.909 9.421,20.951 8.983,21.000 C8.490,21.000 7.997,21.000 7.503,21.000 C7.175,20.967 6.846,20.934 6.518,20.902 C4.460,20.701 2.537,20.080 0.730,19.095 C0.482,18.960 0.243,18.811 0.000,18.668 C1.405,18.759 2.769,18.651 4.109,18.279 C5.451,17.906 6.671,17.302 7.803,16.429 C5.278,16.148 3.245,14.629 2.866,12.749 C3.639,12.868 4.401,12.860 5.214,12.642 C3.932,12.345 2.912,11.729 2.128,10.754 C1.348,9.785 0.955,8.680 0.963,7.391 C1.719,7.769 2.466,8.008 3.353,8.031 C2.177,7.186 1.432,6.132 1.136,4.798 C0.840,3.468 1.031,2.201 1.721,0.987 C4.628,4.363 8.286,6.214 12.743,6.515 C12.708,6.163 12.667,5.855 12.648,5.546 C12.511,3.284 13.940,1.121 16.102,0.356 C16.569,0.191 17.069,0.116 17.554,-0.001 Z"/>
</svg>