<svg 
 xmlns="http://www.w3.org/2000/svg"
 xmlns:xlink="http://www.w3.org/1999/xlink"
 width="28px" height="16px">
<path fill-rule="evenodd"  opacity="0.502" fill="rgb(255, 255, 255)"
 d="M28.000,15.077 C28.000,15.095 28.000,15.113 28.000,15.131 C27.912,15.619 27.573,15.826 27.126,15.891 C26.884,15.926 26.636,15.933 26.391,15.938 C25.279,15.958 24.167,15.955 23.057,15.999 C22.527,16.020 22.049,15.900 21.584,15.677 C20.926,15.363 20.445,14.837 19.958,14.318 C19.429,13.754 18.924,13.162 18.359,12.636 C17.708,12.030 17.191,12.141 16.752,12.915 C16.672,13.056 16.595,13.211 16.570,13.368 C16.489,13.861 16.411,14.357 16.373,14.854 C16.314,15.606 16.014,15.916 15.253,15.928 C14.642,15.937 14.031,15.950 13.422,15.930 C12.978,15.915 12.526,15.890 12.094,15.798 C9.768,15.303 7.876,14.043 6.349,12.275 C4.532,10.171 3.059,7.818 1.808,5.333 C1.179,4.083 0.601,2.806 0.000,1.541 C0.000,1.413 0.000,1.285 0.000,1.158 C0.237,0.760 0.633,0.736 1.029,0.733 C2.204,0.722 3.379,0.720 4.554,0.714 C5.386,0.709 5.689,0.916 6.019,1.671 C6.749,3.343 7.554,4.977 8.529,6.522 C8.837,7.009 9.204,7.456 9.722,7.741 C10.121,7.960 10.448,7.860 10.642,7.459 C10.724,7.288 10.797,7.104 10.828,6.919 C10.905,6.461 10.978,6.000 11.012,5.537 C11.090,4.469 11.067,3.404 10.827,2.352 C10.703,1.806 10.389,1.442 9.858,1.270 C9.745,1.234 9.630,1.206 9.516,1.177 C9.258,1.113 9.231,1.048 9.404,0.839 C9.654,0.537 9.960,0.298 10.352,0.234 C10.890,0.147 11.432,0.070 11.975,0.039 C13.076,-0.024 14.178,-0.028 15.271,0.167 C15.991,0.295 16.260,0.563 16.389,1.278 C16.407,1.376 16.415,1.478 16.413,1.578 C16.406,2.262 16.392,2.947 16.384,3.631 C16.373,4.589 16.340,5.548 16.369,6.505 C16.380,6.845 16.496,7.208 16.658,7.510 C16.849,7.868 17.213,7.905 17.511,7.631 C17.859,7.312 18.210,6.983 18.490,6.607 C19.659,5.033 20.576,3.316 21.297,1.492 C21.547,0.860 21.711,0.760 22.383,0.768 C22.456,0.769 22.529,0.768 22.602,0.767 C24.032,0.751 25.463,0.725 26.893,0.723 C27.335,0.722 27.800,0.742 28.000,1.267 C28.000,1.395 28.000,1.523 28.000,1.651 C27.823,2.067 27.676,2.498 27.465,2.896 C26.761,4.221 25.813,5.381 24.921,6.578 C24.459,7.198 24.010,7.829 23.590,8.478 C23.343,8.861 23.373,9.289 23.643,9.661 C23.829,9.918 24.051,10.150 24.274,10.376 C25.048,11.161 25.859,11.910 26.598,12.726 C27.216,13.407 27.853,14.102 28.000,15.077 Z"/>
</svg>